<?xml version="1.0" encoding="UTF-8" standalone="no"?>
<svg width="100%" height="100%" viewBox="0 0 500 500" xmlns="http://www.w3.org/2000/svg">
  <circle cx="250" cy="250" r="240" fill="#1E5631"/>
  <circle cx="250" cy="250" r="180" fill="#0A3259"/>
  <path d="M250 430C149.5 430 70 350.5 70 250S149.5 70 250 70 430 149.5 430 250 350.5 430 250 430zm0-340c-88.4 0-160 71.6-160 160s71.6 160 160 160 160-71.6 160-160-71.6-160-160-160z" fill="#1E5631"/>
  <text x="250" y="125" font-family="Arial, sans-serif" font-size="32" font-weight="bold" fill="white" text-anchor="middle">MULTI-PURPOSE COOPERATIVE</text>
  <text x="250" y="385" font-family="Arial, sans-serif" font-size="32" font-weight="bold" fill="white" text-anchor="middle">PANDOL GORELLA COOPERATIVE</text>
  <text x="360" y="250" font-family="Arial, sans-serif" font-size="32" font-weight="bold" fill="white" text-anchor="middle" transform="rotate(90 360 250)">2007</text>
  
  <!-- Simplified hand holding mountain and star -->
  <path d="M280 230 C300 210, 320 200, 340 220 C350 230, 345 240, 340 250 L300 270 Z" fill="#D2691E" />
  <polygon points="220,270 280,220 340,270" fill="#228B22" />
  <circle cx="200" cy="230" r="10" fill="#FFD700" />
  
  <!-- Simplified house -->
  <polygon points="240,290 280,250 320,290" fill="#DC143C" />
  <rect x="250" y="290" width="60" height="30" fill="#DC143C" />
  
  <!-- Simplified leaves -->
  <path d="M170 250 C190 230, 200 220, 210 240" stroke="#228B22" stroke-width="6" fill="none" />
  <path d="M180 270 C200 250, 210 240, 220 260" stroke="#228B22" stroke-width="6" fill="none" />
  <path d="M320 260 C340 240, 350 230, 360 250" stroke="#228B22" stroke-width="6" fill="none" />
  <path d="M330 280 C350 260, 360 250, 370 270" stroke="#228B22" stroke-width="6" fill="none" />
</svg> 